<?xml version="1.0" standalone="no"?><svg xmlns="http://www.w3.org/2000/svg" viewBox="0 0 1440 320"><path fill="#A9E7DA" fill-opacity="1" d="M0,128L40,112C80,96,160,64,240,69.3C320,75,400,117,480,160C560,203,640,245,720,250.7C800,256,880,224,960,176C1040,128,1120,64,1200,58.7C1280,53,1360,107,1400,133.3L1440,160L1440,320L1400,320C1360,320,1280,320,1200,320C1120,320,1040,320,960,320C880,320,800,320,720,320C640,320,560,320,480,320C400,320,320,320,240,320C160,320,80,320,40,320L0,320Z"></path></svg>